{"title":"Housefull 3 (2016) x264 DvDrip AC3 5.1 MSubs -DDR","uid":15599637,"size":1585695399,"categoryP":"video","categoryS":"movies_dvdr","magnet":"?xt=urn:btih:50ea727a9eb480d458b073090d12da8fbc161d4f&amp;dn=Housefull+3+%282016%29+x264+DvDrip+AC3+5.1+MSubs+-DDR&amp;tr=udp%3A%2F%2Ftracker.leechers-paradise.org%3A6969&amp;tr=udp%3A%2F%2Fzer0day.ch%3A1337&amp;tr=udp%3A%2F%2Fopen.demonii.com%3A1337&amp;tr=udp%3A%2F%2Ftracker.coppersurfer.tk%3A6969&amp;tr=udp%3A%2F%2Fexodus.desync.com%3A6969","seeders":67,"leechers":19,"uploader":"4bh1j","files":3,"time":1471615169,"description":"Source : DVD9 @ ICTV\r\nFormat : Matroska\r\nFile size : 1.46 GiB\r\nDuration : 2h 14mn\r\nOverall bit rate : 1 561 Kbps\r\n\r\nVideo\r\nFormat : AVC\r\nFormat/Info : Advanced Video Codec\r\nFormat profile :   \r\nFormat settings, CABAC : Yes\r\nFormat settings, ReFrames : 16 frames\r\nCodec ID : V_MPEG4/ISO/AVC\r\nDuration : 2h 14mn\r\nBit rate : 1 108 Kbps\r\nWidth : 720 pixels\r\nHeight : 304 pixels\r\nDisplay aspect ratio : 2.35:1\r\nFrame rate mode : Constant\r\nFrame rate : 23.976 (24000/1001) fps\r\nColor space : YUV\r\nChroma subsampling : 4:2:0\r\nBit depth : 8 bits\r\nScan type : Progressive\r\nBits/(Pixel*Frame) : 0.211\r\nStream size : 1.04 GiB (71%)\r\nLanguage : English\r\nDefault : Yes\r\nForced : No\r\nColor range : Limited\r\nColor primaries : BT.601 NTSC\r\nTransfer characteristics : BT.470 System B, BT.470 System G\r\nMatrix coefficients : BT.601\r\n\r\nAudio\r\nFormat : AC-3\r\nFormat/Info : Audio Coding 3\r\nMode extension : CM (complete main)\r\nFormat settings, Endianness : Big\r\nCodec ID : A_AC3\r\nDuration : 2h 14mn\r\nBit rate mode : Constant\r\nBit rate : 448 Kbps\r\nChannel(s) : 6 channels\r\nChannel positions : Front: L C R, Side: L R, LFE\r\nSampling rate : 48.0 KHz\r\nFrame rate : 31.250 fps (1536 spf)\r\nCompression mode : Lossy\r\nStream size : 431 MiB (29%)\r\nLanguage : Hindi\r\nDefault : Yes\r\nForced : No\r\n\r\n\r\nChapters = YES\r\n\r\n\r\n-screens- \nhttp://extraimago.com/images/2016/08/19/h3_maya_2cd.mkv160070.png \nhttp://extraimago.com/images/2016/08/19/h3_maya_2cd.mkv160069.png \nhttp://extraimago.com/images/2016/08/19/h3_maya_2cd.mkv159960.png \nhttp://extraimago.com/images/2016/08/19/h3_maya_2cd.mkv157643.png","torrent":{"xt":"urn:btih:50ea727a9eb480d458b073090d12da8fbc161d4f","amp;dn":"Housefull+3+%282016%29+x264+DvDrip+AC3+5.1+MSubs+-DDR","amp;tr":["udp%3A%2F%2Ftracker.leechers-paradise.org%3A6969","udp%3A%2F%2Fzer0day.ch%3A1337","udp%3A%2F%2Fopen.demonii.com%3A1337","udp%3A%2F%2Ftracker.coppersurfer.tk%3A6969","udp%3A%2F%2Fexodus.desync.com%3A6969"],"infoHash":"50ea727a9eb480d458b073090d12da8fbc161d4f","infoHashBuffer":{"type":"Buffer","data":[80,234,114,122,158,180,128,212,88,176,115,9,13,18,218,143,188,22,29,79]},"announce":[],"urlList":[]}}